<svg width="24" height="24" viewBox="0 0 32 32" fill="none" xmlns="http://www.w3.org/2000/svg">
<g id="vuesax/outline/call">
<g id="call">
<path id="Vector" d="M23.266 30.3327C21.7593 30.3327 20.1727 29.9727 18.5327 29.2793C16.9327 28.5993 15.3194 27.666 13.746 26.5327C12.186 25.386 10.6793 24.106 9.25268 22.706C7.83935 21.2794 6.55935 19.7727 5.42602 18.226C4.27935 16.626 3.35935 15.026 2.70602 13.4793C2.01268 11.826 1.66602 10.226 1.66602 8.71935C1.66602 7.67935 1.85268 6.69268 2.21268 5.77268C2.58602 4.82602 3.18602 3.94602 3.99935 3.18602C5.02602 2.17268 6.19935 1.66602 7.45268 1.66602C7.97268 1.66602 8.50602 1.78602 8.95935 1.99935C9.47935 2.23935 9.91935 2.59935 10.2393 3.07935L13.3327 7.43935C13.6127 7.82602 13.826 8.19935 13.9727 8.57268C14.146 8.97268 14.2393 9.37268 14.2393 9.75935C14.2393 10.266 14.0927 10.7593 13.8127 11.226C13.6127 11.586 13.306 11.9727 12.9193 12.3594L12.0127 13.306C12.026 13.346 12.0393 13.3727 12.0527 13.3993C12.2127 13.6793 12.5327 14.1593 13.146 14.8793C13.7993 15.626 14.4127 16.306 15.026 16.9327C15.8127 17.706 16.466 18.3193 17.0793 18.826C17.8393 19.466 18.3327 19.786 18.626 19.9327L18.5993 19.9993L19.5727 19.0393C19.986 18.626 20.386 18.3193 20.7727 18.1194C21.506 17.666 22.4394 17.586 23.3727 17.9727C23.7194 18.1193 24.0927 18.3193 24.4927 18.5993L28.9193 21.746C29.4127 22.0793 29.7727 22.506 29.986 23.0127C30.186 23.5194 30.2793 23.986 30.2793 24.4527C30.2793 25.0927 30.1327 25.7327 29.8527 26.3327C29.5727 26.9327 29.226 27.4527 28.786 27.9327C28.026 28.7727 27.1994 29.3727 26.2393 29.7593C25.3193 30.1327 24.3194 30.3327 23.266 30.3327ZM7.45268 3.66602C6.71935 3.66602 6.03935 3.98602 5.38602 4.62602C4.77268 5.19935 4.34602 5.82602 4.07935 6.50602C3.79935 7.19935 3.66602 7.93268 3.66602 8.71935C3.66602 9.95935 3.95935 11.306 4.54602 12.6927C5.14602 14.106 5.98602 15.5727 7.05268 17.0393C8.11935 18.506 9.33268 19.9327 10.666 21.2794C11.9993 22.5993 13.4393 23.826 14.9193 24.906C16.3593 25.9594 17.8393 26.8127 19.306 27.426C21.586 28.3993 23.7194 28.626 25.4794 27.8927C26.1594 27.6127 26.7593 27.186 27.306 26.5727C27.6127 26.2393 27.8527 25.8794 28.0527 25.4527C28.2127 25.1194 28.2927 24.7727 28.2927 24.426C28.2927 24.2127 28.2527 23.9993 28.146 23.7593C28.106 23.6793 28.026 23.5327 27.7727 23.3594L23.346 20.2127C23.0793 20.026 22.8393 19.8927 22.6127 19.7994C22.3193 19.6793 22.1993 19.5593 21.746 19.8393C21.4793 19.9727 21.2393 20.1727 20.9727 20.4394L19.9594 21.4394C19.4394 21.946 18.6394 22.066 18.026 21.8393L17.666 21.6793C17.1193 21.386 16.4793 20.9327 15.7727 20.3327C15.1327 19.786 14.4393 19.146 13.5993 18.3193C12.946 17.6527 12.2927 16.946 11.6127 16.1593C10.986 15.426 10.5327 14.7993 10.2527 14.2793L10.0927 13.8793C10.0127 13.5727 9.98602 13.3993 9.98602 13.2127C9.98602 12.7327 10.1593 12.306 10.4927 11.9727L11.4927 10.9327C11.7593 10.666 11.9593 10.4127 12.0927 10.186C12.1993 10.0127 12.2393 9.86602 12.2393 9.73268C12.2393 9.62602 12.1993 9.46602 12.1327 9.30602C12.0393 9.09268 11.8927 8.85268 11.706 8.59935L8.61268 4.22602C8.47935 4.03935 8.31935 3.90602 8.11935 3.81268C7.90602 3.71935 7.67935 3.66602 7.45268 3.66602ZM18.5993 20.0127L18.386 20.9193L18.746 19.986C18.6793 19.9727 18.626 19.986 18.5993 20.0127Z" fill="#A1A1A1"/>
</g>
</g>
</svg>
