<svg width="32" height="32" viewBox="0 0 32 32" fill="none" xmlns="http://www.w3.org/2000/svg">
<g id="vuesax/outline/close-square">
<g id="close-square">
<path id="Vector" d="M12.2271 20.7738C11.9738 20.7738 11.7205 20.6805 11.5205 20.4805C11.1338 20.0938 11.1338 19.4538 11.5205 19.0671L19.0671 11.5205C19.4538 11.1338 20.0938 11.1338 20.4805 11.5205C20.8671 11.9071 20.8671 12.5471 20.4805 12.9338L12.9338 20.4805C12.7471 20.6805 12.4805 20.7738 12.2271 20.7738Z" fill="#6495ED"/>
<path id="Vector_2" d="M19.7738 20.7738C19.5205 20.7738 19.2671 20.6805 19.0671 20.4805L11.5205 12.9338C11.1338 12.5471 11.1338 11.9071 11.5205 11.5205C11.9071 11.1338 12.5471 11.1338 12.9338 11.5205L20.4805 19.0671C20.8671 19.4538 20.8671 20.0938 20.4805 20.4805C20.2805 20.6805 20.0271 20.7738 19.7738 20.7738Z" fill="#6495ED"/>
<path id="Vector_3" d="M19.9993 30.3327H11.9993C4.75935 30.3327 1.66602 27.2393 1.66602 19.9993V11.9993C1.66602 4.75935 4.75935 1.66602 11.9993 1.66602H19.9993C27.2393 1.66602 30.3327 4.75935 30.3327 11.9993V19.9993C30.3327 27.2393 27.2393 30.3327 19.9993 30.3327ZM11.9993 3.66602C5.85268 3.66602 3.66602 5.85268 3.66602 11.9993V19.9993C3.66602 26.146 5.85268 28.3327 11.9993 28.3327H19.9993C26.146 28.3327 28.3327 26.146 28.3327 19.9993V11.9993C28.3327 5.85268 26.146 3.66602 19.9993 3.66602H11.9993Z" fill="#6495ED"/>
</g>
</g>
</svg>
