<svg xmlns="http://www.w3.org/2000/svg" width="21" height="20" fill="none"><g fill="#6495ED"><path d="M7.166 4.791a.63.63 0 0 1-.625-.625v-2.5a.63.63 0 0 1 .625-.625.63.63 0 0 1 .625.625v2.5a.63.63 0 0 1-.625.625ZM13.834 4.791a.63.63 0 0 1-.625-.625v-2.5a.63.63 0 0 1 .625-.625.63.63 0 0 1 .625.625v2.5a.63.63 0 0 1-.625.625Z"/><path d="M13 18.958H8c-4.683 0-5.625-2.209-5.625-5.775V8.04c0-3.95 1.333-5.558 4.758-5.75h6.734c3.425.192 4.758 1.8 4.758 5.75v5.142c0 3.566-.942 5.775-5.625 5.775ZM7.167 3.54c-2.334.133-3.542.867-3.542 4.5v5.142c0 3.191.608 4.525 4.375 4.525h5c3.767 0 4.375-1.334 4.375-4.525V8.04c0-3.625-1.2-4.367-3.558-4.5h-6.65Z"/><path d="M17.792 15.291H3.21a.63.63 0 0 1-.625-.625.63.63 0 0 1 .625-.625h14.583a.63.63 0 0 1 .625.625.63.63 0 0 1-.625.625ZM10.5 6.875c-1.026 0-1.892.558-1.892 1.642 0 .516.241.908.608 1.158-.508.3-.8.783-.8 1.35 0 1.033.792 1.675 2.083 1.675 1.284 0 2.084-.642 2.084-1.675 0-.567-.292-1.058-.809-1.35.375-.258.609-.642.609-1.158 0-1.084-.859-1.642-1.884-1.642Zm0 2.367c-.434 0-.75-.259-.75-.667 0-.417.316-.658.75-.658.433 0 .75.241.75.658 0 .408-.317.667-.75.667Zm0 2.425c-.55 0-.95-.275-.95-.775s.4-.767.95-.767c.55 0 .95.275.95.767 0 .5-.4.775-.95.775Z"/></g></svg>