<svg width="32" height="32" viewBox="0 0 32 32" fill="none" xmlns="http://www.w3.org/2000/svg">
<g id="vuesax/outline/close-circle">
<g id="close-circle">
<path id="Vector" d="M15.9993 30.3346C8.09268 30.3346 1.66602 23.908 1.66602 16.0013C1.66602 8.09464 8.09268 1.66797 15.9993 1.66797C23.906 1.66797 30.3327 8.09464 30.3327 16.0013C30.3327 23.908 23.906 30.3346 15.9993 30.3346ZM15.9993 3.66797C9.19935 3.66797 3.66602 9.2013 3.66602 16.0013C3.66602 22.8013 9.19935 28.3346 15.9993 28.3346C22.7993 28.3346 28.3327 22.8013 28.3327 16.0013C28.3327 9.2013 22.7993 3.66797 15.9993 3.66797Z" fill="white"/>
<path id="Vector_2" d="M12.2271 20.7738C11.9738 20.7738 11.7205 20.6805 11.5205 20.4805C11.1338 20.0938 11.1338 19.4538 11.5205 19.0671L19.0671 11.5205C19.4538 11.1338 20.0938 11.1338 20.4805 11.5205C20.8671 11.9071 20.8671 12.5471 20.4805 12.9338L12.9338 20.4805C12.7471 20.6805 12.4805 20.7738 12.2271 20.7738Z" fill="white"/>
<path id="Vector_3" d="M19.7738 20.7738C19.5205 20.7738 19.2671 20.6805 19.0671 20.4805L11.5205 12.9338C11.1338 12.5471 11.1338 11.9071 11.5205 11.5205C11.9071 11.1338 12.5471 11.1338 12.9338 11.5205L20.4805 19.0671C20.8671 19.4538 20.8671 20.0938 20.4805 20.4805C20.2805 20.6805 20.0271 20.7738 19.7738 20.7738Z" fill="white"/>
</g>
</g>
</svg>
