<svg width="22" height="22" viewBox="0 0 22 22" fill="none" xmlns="http://www.w3.org/2000/svg">
<g id="vuesax/outline/location">
<g id="location">
<path id="Vector" d="M11.0006 12.9901C9.04812 12.9901 7.45312 11.4043 7.45312 9.44263C7.45312 7.48096 9.04812 5.9043 11.0006 5.9043C12.9531 5.9043 14.5481 7.49013 14.5481 9.4518C14.5481 11.4135 12.9531 12.9901 11.0006 12.9901ZM11.0006 7.2793C9.80896 7.2793 8.82812 8.25096 8.82812 9.4518C8.82812 10.6526 9.79979 11.6243 11.0006 11.6243C12.2015 11.6243 13.1731 10.6526 13.1731 9.4518C13.1731 8.25096 12.1923 7.2793 11.0006 7.2793Z" fill="white"/>
<path id="Vector_2" d="M10.9996 20.864C9.64288 20.864 8.27705 20.3507 7.21372 19.3332C4.50955 16.7298 1.52122 12.5773 2.64872 7.63648C3.66622 3.15398 7.58038 1.14648 10.9996 1.14648C10.9996 1.14648 10.9996 1.14648 11.0087 1.14648C14.4279 1.14648 18.3421 3.15398 19.3596 7.64565C20.4779 12.5865 17.4896 16.7298 14.7854 19.3332C13.7221 20.3507 12.3562 20.864 10.9996 20.864ZM10.9996 2.52148C8.33205 2.52148 4.90372 3.94232 3.99622 7.93898C3.00622 12.2565 5.71955 15.9782 8.17622 18.334C9.76205 19.8648 12.2462 19.8648 13.8321 18.334C16.2796 15.9782 18.9929 12.2565 18.0212 7.93898C17.1046 3.94232 13.6671 2.52148 10.9996 2.52148Z" fill="white"/>
</g>
</g>
</svg>
