<svg width="32" height="32" viewBox="0 0 32 32" fill="none" xmlns="http://www.w3.org/2000/svg">
<g id="vuesax/outline/send-2">
<g id="send-2">
<path id="Vector" d="M18.9605 28.8391C17.3872 28.8391 15.1605 27.7325 13.4005 22.4391L12.4405 19.5591L9.56049 18.5991C4.28049 16.8391 3.17383 14.6125 3.17383 13.0391C3.17383 11.4791 4.28049 9.23912 9.56049 7.46579L20.8805 3.69245C23.7072 2.74578 26.0672 3.02578 27.5205 4.46578C28.9738 5.90579 29.2538 8.27912 28.3072 11.1058L24.5338 22.4258C22.7605 27.7325 20.5338 28.8391 18.9605 28.8391ZM10.1872 9.37245C6.48049 10.6125 5.16049 12.0791 5.16049 13.0391C5.16049 13.9991 6.48049 15.4658 10.1872 16.6925L13.5472 17.8125C13.8405 17.9058 14.0805 18.1458 14.1738 18.4391L15.2938 21.7991C16.5205 25.5058 18.0005 26.8258 18.9605 26.8258C19.9205 26.8258 21.3872 25.5058 22.6272 21.7991L26.4005 10.4791C27.0805 8.42579 26.9605 6.74578 26.0938 5.87912C25.2272 5.01245 23.5472 4.90579 21.5072 5.58579L10.1872 9.37245Z" fill="#1C1C1C"/>
<path id="Vector_2" d="M13.4791 19.1993C13.2258 19.1993 12.9724 19.106 12.7724 18.906C12.3858 18.5194 12.3858 17.8793 12.7724 17.4927L17.5458 12.706C17.9324 12.3193 18.5724 12.3193 18.9591 12.706C19.3458 13.0927 19.3458 13.7327 18.9591 14.1193L14.1858 18.906C13.9991 19.106 13.7324 19.1993 13.4791 19.1993Z" fill="#1C1C1C"/>
</g>
</g>
</svg>
