<svg width="32" height="32" viewBox="0 0 32 32" fill="none" xmlns="http://www.w3.org/2000/svg">
<g id="vuesax/outline/sms">
<g id="sms">
<path id="Vector" d="M22.666 28.3327H9.33268C4.46602 28.3327 1.66602 25.5327 1.66602 20.666V11.3327C1.66602 6.46602 4.46602 3.66602 9.33268 3.66602H22.666C27.5327 3.66602 30.3327 6.46602 30.3327 11.3327V20.666C30.3327 25.5327 27.5327 28.3327 22.666 28.3327ZM9.33268 5.66602C5.51935 5.66602 3.66602 7.51935 3.66602 11.3327V20.666C3.66602 24.4793 5.51935 26.3327 9.33268 26.3327H22.666C26.4793 26.3327 28.3327 24.4793 28.3327 20.666V11.3327C28.3327 7.51935 26.4793 5.66602 22.666 5.66602H9.33268Z" fill="#1C1C1C"/>
<path id="Vector_2" d="M16.0004 17.16C14.8804 17.16 13.747 16.8133 12.8804 16.1066L8.70702 12.7733C8.28035 12.4266 8.20036 11.8 8.54703 11.3733C8.89369 10.9466 9.52036 10.8666 9.94703 11.2133L14.1203 14.5466C15.1337 15.36 16.8537 15.36 17.867 14.5466L22.0404 11.2133C22.467 10.8666 23.107 10.9333 23.4404 11.3733C23.787 11.8 23.7204 12.44 23.2804 12.7733L19.107 16.1066C18.2537 16.8133 17.1204 17.16 16.0004 17.16Z" fill="#1C1C1C"/>
</g>
</g>
</svg>
