<svg width="32" height="32" viewBox="0 0 32 32" fill="none" xmlns="http://www.w3.org/2000/svg">
<path d="M16.0013 29.3327C8.6375 29.3327 2.66797 23.3631 2.66797 15.9993C2.66797 8.63555 8.6375 2.66602 16.0013 2.66602C23.3651 2.66602 29.3347 8.63555 29.3347 15.9993C29.3347 23.3631 23.3651 29.3327 16.0013 29.3327ZM11.8548 17.5604L11.8717 17.5497C12.6447 20.1016 13.0312 21.3776 13.0312 21.3776C13.1808 21.7916 13.3867 21.8655 13.6364 21.8317C13.886 21.7979 14.0185 21.6628 14.1815 21.5056C14.1815 21.5056 14.7099 20.9956 15.7667 19.9757L19.1679 22.4924C19.7876 22.8348 20.2351 22.6581 20.3889 21.9163L22.5993 11.4879C22.8433 10.5172 22.4153 10.1279 21.6627 10.4361L8.68529 15.4488C7.79994 15.8047 7.80422 16.3 8.5241 16.5208L11.8548 17.5604Z" fill="#6495ED"/>
</svg>
