<svg width="32" height="32" viewBox="0 0 32 32" fill="none" xmlns="http://www.w3.org/2000/svg">
<path d="M16.3265 5.33398C17.0386 5.3379 18.8204 5.35513 20.7134 5.43096L21.3846 5.46022C23.2906 5.55046 25.195 5.70462 26.1396 5.96798C27.3994 6.32192 28.3897 7.35465 28.7244 8.66374C29.2573 10.7425 29.324 14.7999 29.3322 15.7817L29.3334 15.9852V15.9994C29.3334 15.9994 29.3334 16.0044 29.3334 16.0139L29.3322 16.2173C29.324 17.1992 29.2573 21.2565 28.7244 23.3353C28.385 24.6492 27.3948 25.682 26.1396 26.031C25.195 26.2944 23.2906 26.4485 21.3846 26.5388L20.7134 26.568C18.8204 26.6439 17.0386 26.6611 16.3265 26.6651L16.014 26.6661H16.0001C16.0001 26.6661 15.9954 26.6661 15.9862 26.6661L15.674 26.6651C14.1668 26.6568 7.86493 26.5886 5.86065 26.031C4.60077 25.677 3.61053 24.6444 3.2758 23.3353C2.7429 21.2565 2.67629 17.1992 2.66797 16.2173V15.7817C2.67629 14.7999 2.7429 10.7425 3.2758 8.66374C3.61517 7.3498 4.60541 6.31708 5.86065 5.96798C7.86493 5.41029 14.1668 5.34228 15.674 5.33398H16.3265ZM13.3334 11.3328V20.6661L21.3334 15.9994L13.3334 11.3328Z" fill="#6495ED"/>
</svg>
